# xmcd CD database file
#
# Track frame offsets:
#	150
#	23780
#	46347
#
# Disc length: 927 seconds
#
# Revision: 1
# Processed by: cddbd v1.5.2PL0 Copyright (c) Steve Scherf et al.
# Submitted via: CDex 1.50
#
DISCID=1b039d03
DTITLE=???? - 20th Century Boy
DYEAR=1998
DGENRE=Rock
TTITLE0=20th Century Boy
TTITLE1=Song for you
TTITLE2=20th Century Boy (instrumental)
EXTD=YEAR: 1998
EXTT0=
EXTT1=
EXTT2=
PLAYORDER=
